<svg aria-hidden="true" style="position: absolute; width: 0; height: 0; overflow: hidden;" version="1.1" xmlns="http://www.w3.org/2000/svg" xmlns:xlink="http://www.w3.org/1999/xlink">
<defs>
<symbol id="icon-menu" viewBox="0 0 32 32">
<path d="M0 4.8v3.2h32v-3.2zM0 14.4v3.2h32v-3.2zM0 24v3.2h32v-3.2z"></path>
</symbol>
<symbol id="icon-mail" viewBox="0 0 32 32">
<path d="M8.96 2.56c-3.527 0-6.4 2.873-6.4 6.4v14.080c0 3.527 2.873 6.4 6.4 6.4h14.080c3.527 0 6.4-2.873 6.4-6.4v-14.080c0-3.527-2.873-6.4-6.4-6.4h-14.080zM8.32 10.24h15.36c0.115 0 0.224 0.013 0.326 0.045l-6.291 6.285c-0.947 0.947-2.489 0.947-3.436 0l-6.285-6.285c0.102-0.032 0.211-0.045 0.326-0.045zM7.085 11.194l4.813 4.806-4.813 4.806c-0.032-0.102-0.045-0.211-0.045-0.326v-8.96c0-0.115 0.013-0.224 0.045-0.326zM24.915 11.194c0.032 0.102 0.045 0.211 0.045 0.326v8.96c0 0.115-0.013 0.224-0.045 0.326l-4.819-4.806 4.819-4.806zM12.8 16.902l0.57 0.576c0.723 0.723 1.677 1.081 2.624 1.081 0.954 0 1.901-0.358 2.624-1.081l0.576-0.576 4.813 4.813c-0.102 0.032-0.211 0.045-0.326 0.045h-15.36c-0.115 0-0.224-0.013-0.326-0.045l4.806-4.813z"></path>
</symbol>
<symbol id="icon-phone" viewBox="0 0 32 32">
<path d="M8.96 2.554c-3.527 0-6.4 2.873-6.4 6.4v14.080c0 3.527 2.873 6.4 6.4 6.4h14.080c3.527 0 6.4-2.873 6.4-6.4v-14.080c0-3.527-2.873-6.4-6.4-6.4h-14.080zM11.524 7.701c0.402 0.017 0.771 0.244 0.994 0.591 0.253 0.396 0.647 1.009 1.159 1.81 0.467 0.73 0.5 1.673 0.082 2.435l-0.938 1.334c-0.253 0.361-0.304 0.823-0.134 1.23 0.265 0.634 0.779 1.607 1.691 2.52s1.886 1.426 2.52 1.691c0.407 0.17 0.869 0.12 1.23-0.134l1.334-0.938c0.762-0.417 1.705-0.384 2.435 0.082 0.801 0.512 1.414 0.905 1.81 1.159 0.348 0.223 0.574 0.592 0.591 0.994 0.099 2.281-1.669 3.205-2.183 3.205-0.356 0-4.634 0.486-9.459-4.339s-4.339-9.103-4.339-9.459c0-0.514 0.924-2.281 3.205-2.183z"></path>
</symbol>
<symbol id="icon-instagram" viewBox="0 0 32 32">
<path d="M10.24 1.92c-4.589 0-8.32 3.731-8.32 8.32v11.52c0 4.589 3.731 8.32 8.32 8.32h11.52c4.589 0 8.32-3.731 8.32-8.32v-11.52c0-4.589-3.731-8.32-8.32-8.32h-11.52zM23.68 7.040c0.704 0 1.28 0.576 1.28 1.28s-0.576 1.28-1.28 1.28c-0.704 0-1.28-0.576-1.28-1.28s0.576-1.28 1.28-1.28zM16 8.96c3.885 0 7.040 3.155 7.040 7.040s-3.155 7.040-7.040 7.040c-3.885 0-7.040-3.155-7.040-7.040s3.155-7.040 7.040-7.040zM16 10.24c-3.174 0-5.76 2.586-5.76 5.76s2.586 5.76 5.76 5.76c3.174 0 5.76-2.586 5.76-5.76s-2.586-5.76-5.76-5.76z"></path>
</symbol>
<symbol id="icon-cross" viewBox="0 0 32 32">
<path d="M31.708 25.708c-0-0-0-0-0-0l-9.708-9.708 9.708-9.708c0-0 0-0 0-0 0.105-0.105 0.18-0.227 0.229-0.357 0.133-0.356 0.057-0.771-0.229-1.057l-4.586-4.586c-0.286-0.286-0.702-0.361-1.057-0.229-0.13 0.048-0.252 0.124-0.357 0.228 0 0-0 0-0 0l-9.708 9.708-9.708-9.708c-0-0-0-0-0-0-0.105-0.104-0.227-0.18-0.357-0.228-0.356-0.133-0.771-0.057-1.057 0.229l-4.586 4.586c-0.286 0.286-0.361 0.702-0.229 1.057 0.049 0.13 0.124 0.252 0.229 0.357 0 0 0 0 0 0l9.708 9.708-9.708 9.708c-0 0-0 0-0 0-0.104 0.105-0.18 0.227-0.229 0.357-0.133 0.355-0.057 0.771 0.229 1.057l4.586 4.586c0.286 0.286 0.702 0.361 1.057 0.229 0.13-0.049 0.252-0.124 0.357-0.229 0-0 0-0 0-0l9.708-9.708 9.708 9.708c0 0 0 0 0 0 0.105 0.105 0.227 0.18 0.357 0.229 0.356 0.133 0.771 0.057 1.057-0.229l4.586-4.586c0.286-0.286 0.362-0.702 0.229-1.057-0.049-0.13-0.124-0.252-0.229-0.357z"></path>
</symbol>
<symbol id="icon-arrow" viewBox="0 0 43 32">
<path d="M5.789 15.997l11.89-11.89c0.961-0.961 0.961-2.45 0-3.411-0.937-0.937-2.426-0.937-3.387 0l-13.595 13.595c-0.937 0.961-0.937 2.45 0 3.387l13.595 13.595c0.961 0.961 2.45 0.961 3.387 0 0.961-0.961 0.961-2.45 0-3.387l-11.89-11.89z"></path>
<path d="M8.191 13.595l9.488-9.488c0.961-0.961 0.961-2.45 0-3.411-0.937-0.937-2.426-0.937-3.387 0l-13.595 13.595c-0.937 0.961-0.937 2.45 0 3.387l13.595 13.595c0.961 0.961 2.45 0.961 3.387 0 0.961-0.961 0.961-2.45 0-3.387l-9.488-9.488h34.469v-4.804h-34.469z"></path>
</symbol>
</defs>
</svg>
